<?xml version="1.0" encoding="UTF-8" standalone="no"?>
<svg
   width="234"
   height="234"
   viewBox="0 0 234 234"
   fill="none"
   version="1.1"
   id="svg1"
   sodipodi:docname="img05.svg"
   inkscape:version="1.3.2 (091e20ef0f, 2023-11-25)"
   xmlns:inkscape="http://www.inkscape.org/namespaces/inkscape"
   xmlns:sodipodi="http://sodipodi.sourceforge.net/DTD/sodipodi-0.dtd"
   xmlns="http://www.w3.org/2000/svg"
   xmlns:svg="http://www.w3.org/2000/svg">
  <defs
     id="defs1" />
  <sodipodi:namedview
     id="namedview1"
     pagecolor="#ffffff"
     bordercolor="#000000"
     borderopacity="0.25"
     inkscape:showpageshadow="2"
     inkscape:pageopacity="0.0"
     inkscape:pagecheckerboard="0"
     inkscape:deskcolor="#d1d1d1"
     inkscape:zoom="3.0334573"
     inkscape:cx="98.897059"
     inkscape:cy="122.96201"
     inkscape:window-width="1920"
     inkscape:window-height="1020"
     inkscape:window-x="0"
     inkscape:window-y="0"
     inkscape:window-maximized="1"
     inkscape:current-layer="svg1" />
  <rect
     x="3"
     y="3"
     width="228"
     height="228"
     rx="16"
     fill="#ffffff"
     stroke="#000000"
     stroke-width="6"
     id="rect1" />
  <path
     d="m 105.1903,177.4072 c -7.0801,0 -12.6875,-1.671 -16.8223,-5.013 -4.1347,-3.285 -6.2021,-6.967 -6.2021,-11.045 0,-4.191 1.4726,-6.74 4.4179,-7.646 0.793,-1.133 0.793,-2.464 0,-3.993 -3.0586,0 -5.5791,1.076 -7.5615,3.228 -1.9258,2.153 -2.8887,5.183 -2.8887,9.091 0,4.871 2.7471,9.572 8.2413,14.104 5.4941,4.531 12.6591,6.796 21.4951,6.796 11.6117,0 21.7787,-4.276 30.5007,-12.829 8.78,-8.496 13.169,-19.003 13.169,-31.52 0,-7.533 -1.218,-13.877 -3.653,-19.031 -2.436,-5.155 -5.919,-9.12 -10.45,-11.895 -4.532,-2.832 -9.516,-4.814 -14.953,-5.947 -5.438,-1.19 -11.753,-1.784 -18.9467,-1.784 l 3.6533,-21.411 h 42.3954 l 6.797,-26.0826 c -1.02,-0.7929 -2.407,-1.1894 -4.163,-1.1894 -1.699,3.2851 -3.597,5.8057 -5.692,7.5615 -2.096,1.7559 -6.118,2.7754 -12.065,3.0586 h -32.0302 c -1.9258,20.2769 -5.041,37.0999 -9.3457,50.4669 1.2461,2.775 3.0302,4.39 5.3525,4.843 5.7207,0 10.5914,0.283 14.6134,0.849 4.078,0.567 8.099,1.671 12.064,3.314 4.022,1.642 7.08,4.219 9.176,7.731 2.096,3.455 3.144,7.788 3.144,12.999 0,12.291 -3.002,21.24 -9.006,26.848 -5.947,5.664 -13.028,8.496 -21.2404,8.496 z M 147.9257,47.7568 c 4.305,0 7.731,1.1045 10.28,3.3135 l -7.986,30.9259 h -34.834 l -2.379,14.443 c 15.52,0.227 27.471,3.455 35.854,9.686 8.439,6.23 12.659,17.049 12.659,32.455 0,13.197 -5.919,24.44 -17.757,33.729 -11.838,9.289 -24.526,13.934 -38.0626,13.934 -5.9473,0 -11.1866,-0.878 -15.7178,-2.634 -4.4746,-1.699 -7.9297,-3.908 -10.3653,-6.627 -2.4355,-2.662 -4.248,-5.324 -5.4375,-7.986 -1.1328,-2.662 -1.6992,-5.154 -1.6992,-7.477 0,-4.418 1.3877,-8.071 4.1631,-10.96 2.7754,-2.888 6.2022,-4.333 10.2803,-4.333 7.873,0 11.8096,4.362 11.8096,13.084 0,5.325 -2.6055,9.148 -7.8165,11.47 1.4727,1.133 4.0499,1.982 7.7315,2.549 3.7383,0.623 6.7119,0.765 8.9204,0.425 6.854,-0.623 12.631,-3.455 17.333,-8.496 4.701,-5.041 7.051,-12.773 7.051,-23.195 0,-4.531 -0.991,-8.269 -2.973,-11.215 -1.983,-2.945 -4.843,-5.126 -8.581,-6.542 -3.682,-1.416 -7.42,-2.379 -11.215,-2.888 -3.7385,-0.51 -8.2131,-0.765 -13.4241,-0.765 -1.9824,-0.453 -3.5683,-1.218 -4.7578,-2.294 -1.1328,-1.133 -2.3223,-3.03 -3.5683,-5.692 4.4179,-13.821 7.7031,-31.917 9.8554,-54.2903 h 36.6178 c 3.059,-0.1133 5.495,-0.793 7.307,-2.0391 1.813,-1.3027 3.115,-2.4921 3.908,-3.5683 0.85,-1.1328 1.784,-2.8037 2.804,-5.0127 z"
     fill="#000000"
     id="path1" />
</svg>
