<?xml version="1.0" encoding="UTF-8" standalone="no"?>
<svg
   width="234"
   height="234"
   viewBox="0 0 234 234"
   fill="none"
   version="1.1"
   id="svg1"
   sodipodi:docname="img03.svg"
   inkscape:version="1.3.2 (091e20ef0f, 2023-11-25)"
   xmlns:inkscape="http://www.inkscape.org/namespaces/inkscape"
   xmlns:sodipodi="http://sodipodi.sourceforge.net/DTD/sodipodi-0.dtd"
   xmlns="http://www.w3.org/2000/svg"
   xmlns:svg="http://www.w3.org/2000/svg">
  <defs
     id="defs1" />
  <sodipodi:namedview
     id="namedview1"
     pagecolor="#ffffff"
     bordercolor="#000000"
     borderopacity="0.25"
     inkscape:showpageshadow="2"
     inkscape:pageopacity="0.0"
     inkscape:pagecheckerboard="0"
     inkscape:deskcolor="#d1d1d1"
     inkscape:zoom="3.0447761"
     inkscape:cx="116.92157"
     inkscape:cy="134"
     inkscape:window-width="1920"
     inkscape:window-height="1020"
     inkscape:window-x="0"
     inkscape:window-y="0"
     inkscape:window-maximized="1"
     inkscape:current-layer="svg1" />
  <rect
     x="3"
     y="3"
     width="228"
     height="228"
     rx="16"
     fill="#ffffff"
     stroke="#000000"
     stroke-width="6"
     id="rect1" />
  <path
     d="m 102.514,187.84 c -6.0609,0 -11.2152,-0.878 -15.4632,-2.634 -4.1914,-1.699 -7.6182,-3.823 -10.2803,-6.372 -2.6055,-2.492 -4.5029,-5.183 -5.6924,-8.071 -1.1894,-2.832 -1.7842,-5.381 -1.7842,-7.647 0,-2.209 0.3682,-4.248 1.1045,-6.117 0.7364,-1.869 1.7559,-3.483 3.0586,-4.843 1.3028,-1.359 2.8321,-2.435 4.5879,-3.228 1.7559,-0.737 3.6533,-1.105 5.6924,-1.105 8.5527,0 12.8291,4.248 12.8291,12.744 0,6.004 -2.7187,10.111 -8.1562,12.32 3.5117,1.756 8.3261,2.634 14.4438,2.634 2.832,0 5.494,-0.85 7.986,-2.549 2.492,-1.7 4.673,-4.022 6.542,-6.967 1.869,-2.889 3.342,-6.316 4.418,-10.28 1.076,-3.909 1.614,-8.1 1.614,-12.575 0,-11.611 -4.531,-18.125 -13.594,-19.541 -3.851,0.51 -7.929,1.728 -12.2341,3.654 h -6.0322 l -4.9277,-11.3 16.907,-8.156 c 5.155,-2.493 9.006,-5.636 11.555,-9.431 2.605,-3.852 3.908,-8.298 3.908,-13.339 0,-1.359 -0.283,-2.662 -0.85,-3.908 -0.566,-1.303 -1.359,-2.407 -2.378,-3.314 -1.02,-0.962 -2.238,-1.727 -3.654,-2.294 -1.416,-0.566 -2.973,-0.849 -4.673,-0.849 -1.812,0 -3.596,0.283 -5.352,0.849 -1.699,0.51 -3.2286,1.247 -4.588,2.209 -1.3028,0.907 -2.3789,2.04 -3.2285,3.399 -0.793,1.303 -1.1895,2.719 -1.1895,4.248 0,5.324 1.2744,9.799 3.8232,13.424 -1.8691,3.681 -4.5878,5.692 -8.1562,6.032 -7.9863,-5.098 -11.9795,-12.121 -11.9795,-21.07 0,-3.909 0.7363,-7.477 2.209,-10.705 1.4726,-3.286 3.625,-6.089 6.457,-8.4115 2.8321,-2.3789 6.3438,-4.2197 10.5352,-5.5225 4.2483,-1.3027 9.1473,-1.9541 14.6983,-1.9541 26.904,0 40.356,9.1761 40.356,27.5271 0,4.928 -1.416,9.544 -4.248,13.849 -2.775,4.305 -6.57,7.901 -11.384,10.79 13.423,4.701 20.135,15.208 20.135,31.52 0,13.594 -5.352,24.809 -16.057,33.645 -10.649,8.893 -22.968,13.339 -36.958,13.339 z m -0.51,-8.836 c -7.0802,0 -12.6876,-1.671 -16.8224,-5.013 -4.1347,-3.285 -6.2021,-6.967 -6.2021,-11.045 0,-4.134 1.4726,-6.683 4.418,-7.646 0.7929,-1.133 0.7929,-2.464 0,-3.993 -3.0586,0 -5.5791,1.076 -7.5616,3.228 -1.9257,2.153 -2.8886,5.183 -2.8886,9.091 0,4.871 2.7187,9.544 8.1562,14.019 5.4375,4.474 12.461,6.711 21.0705,6.711 9.855,0 19.201,-4.191 28.037,-12.574 8.893,-8.326 13.339,-18.635 13.339,-30.926 0,-9.855 -2.577,-17.19 -7.732,-22.004 -5.154,-4.815 -11.384,-7.505 -18.691,-8.072 v -0.849 c 6.004,-1.869 11.158,-5.155 15.463,-9.856 4.305,-4.701 6.457,-9.827 6.457,-15.378 0,-8.269 -2.577,-14.33 -7.732,-18.181 -5.154,-3.9086 -12.036,-5.8627 -20.645,-5.8627 -9.856,0 -17.3888,2.1524 -22.5997,6.4567 -5.2109,4.305 -7.8164,9.856 -7.8164,16.653 0,7.59 3.1152,13.395 9.3457,17.417 1.5293,-0.227 2.6338,-0.963 3.3135,-2.209 -3.002,-3.399 -4.5029,-7.93 -4.5029,-13.594 0,-4.305 1.5576,-7.788 4.6728,-10.45 3.1152,-2.662 7.873,-3.993 14.273,-3.993 4.418,0 8.043,1.416 10.875,4.248 2.832,2.832 4.248,6.117 4.248,9.855 0,11.611 -5.777,20.249 -17.332,25.913 l -13.9331,6.797 2.039,5.013 c 4.7578,-1.983 9.1761,-2.974 13.2541,-2.974 5.777,0 10.62,1.784 14.528,5.353 3.908,3.511 5.862,9.515 5.862,18.011 0,10.762 -2.293,19.428 -6.881,25.998 -4.588,6.571 -10.592,9.856 -18.012,9.856 z"
     fill="#000000"
     id="path1" />
</svg>
