<?xml version="1.0" encoding="UTF-8" standalone="no"?>
<svg
   width="234"
   height="234"
   viewBox="0 0 234 234"
   fill="none"
   version="1.1"
   id="svg1"
   sodipodi:docname="img02.svg"
   inkscape:version="1.3.2 (091e20ef0f, 2023-11-25)"
   xmlns:inkscape="http://www.inkscape.org/namespaces/inkscape"
   xmlns:sodipodi="http://sodipodi.sourceforge.net/DTD/sodipodi-0.dtd"
   xmlns="http://www.w3.org/2000/svg"
   xmlns:svg="http://www.w3.org/2000/svg">
  <defs
     id="defs1" />
  <sodipodi:namedview
     id="namedview1"
     pagecolor="#ffffff"
     bordercolor="#000000"
     borderopacity="0.25"
     inkscape:showpageshadow="2"
     inkscape:pageopacity="0.0"
     inkscape:pagecheckerboard="0"
     inkscape:deskcolor="#d1d1d1"
     inkscape:zoom="3.2380952"
     inkscape:cx="117.04412"
     inkscape:cy="-22.235294"
     inkscape:window-width="1920"
     inkscape:window-height="1020"
     inkscape:window-x="0"
     inkscape:window-y="0"
     inkscape:window-maximized="1"
     inkscape:current-layer="svg1" />
  <rect
     x="3"
     y="3"
     width="228"
     height="228"
     rx="16.000002"
     fill="#ffffff"
     stroke="#000000"
     stroke-width="6"
     id="rect1" />
  <path
     d="m 112.624,129.584 -33.9844,23.449 c 0.5665,3.738 1.501,6.061 2.8038,6.967 h 58.4526 l 7.817,-28.377 c -0.567,-0.566 -1.614,-0.85 -3.144,-0.85 -1.812,3.116 -4.389,5.976 -7.731,8.581 -3.285,2.606 -6.91,3.909 -10.875,3.909 h -21.41 v -0.85 l 20.9,-12.829 c 12.178,-8.043 18.267,-17.502 18.267,-28.377 0,-7.533 -2.549,-13.509 -7.647,-17.927 -5.097,-4.4177 -12.008,-6.6267 -20.73,-6.6267 -9.006,0 -16.5676,2.0674 -22.6848,6.2017 -6.0605,4.079 -9.0908,9.969 -9.0908,17.672 0,2.889 0.4248,5.551 1.2744,7.987 0.8496,2.435 1.8691,4.389 3.0586,5.862 1.2461,1.416 2.4922,2.634 3.7383,3.653 1.3027,0.963 2.3789,1.615 3.2285,1.954 l 1.3594,0.51 c 1.9824,-0.113 3.2002,-1.161 3.6533,-3.143 -3.8516,-3.229 -5.7774,-8.213 -5.7774,-14.954 0,-4.984 1.7276,-8.807 5.1827,-11.469 3.5118,-2.662 8.1848,-3.993 14.0188,-3.993 3.342,0 6.513,1.331 9.515,3.993 3.059,2.662 4.588,7.08 4.588,13.254 0,5.777 -1.133,10.535 -3.398,14.273 -2.266,3.682 -6.061,7.392 -11.385,11.13 z m 30.076,-0.765 c 3.569,0 6.457,0.935 8.666,2.804 l -7.646,31.86 H 80.4238 c -2.6621,-1.982 -4.5312,-5.919 -5.6074,-11.809 L 110.67,126.78 c 8.836,-6.287 13.254,-13.82 13.254,-22.599 0,-4.078 -0.85,-7.194 -2.549,-9.346 -1.699,-2.152 -3.653,-3.512 -5.862,-4.078 -3.682,0.566 -6.571,1.841 -8.666,3.823 -2.096,1.982 -3.144,4.588 -3.144,7.816 0,2.549 0.482,4.957 1.444,7.222 1.02,2.266 2.04,3.908 3.059,4.928 l 1.614,1.614 c -1.189,4.871 -3.851,7.477 -7.986,7.817 h -6.1172 c -0.4531,-0.114 -1.0479,-0.34 -1.7842,-0.68 -0.6797,-0.34 -1.9258,-1.133 -3.7383,-2.379 -1.7558,-1.303 -3.3418,-2.775 -4.7578,-4.418 -1.3594,-1.643 -2.6054,-3.88 -3.7383,-6.712 -1.0761,-2.832 -1.6142,-5.919 -1.6142,-9.261 0,-8.836 3.3418,-15.604 10.0254,-20.3053 6.7402,-4.7012 15.1516,-7.0518 25.2336,-7.0518 13.367,0 23.421,2.4639 30.161,7.3916 6.797,4.9275 10.195,11.8095 10.195,20.6455 0,12.291 -7.052,22.713 -21.155,31.266 l -11.895,7.306 h 3.824 c 3.285,-0.113 6.4,-1.246 9.345,-3.398 2.946,-2.209 5.24,-4.73 6.882,-7.562 z"
     fill="#000000"
     id="path1" />
</svg>
