<svg width="234" height="234" viewBox="0 0 234 234" fill="none" xmlns="http://www.w3.org/2000/svg">
<rect x="3" y="3" width="228" height="228" rx="16" fill="white" stroke="black" stroke-width="6"/>
<path d="M131.91 142.107C131.91 155.078 129.814 164.112 125.623 169.21C121.432 174.308 116.73 176.856 111.52 176.856C103.76 176.856 97.6992 174.053 93.3379 168.445C88.9766 162.781 86.7959 154.852 86.7959 144.656C86.7959 129.703 90.5908 118.347 98.1807 110.587C110.812 110.7 119.562 113.249 124.434 118.233C129.305 123.218 131.797 131.176 131.91 142.107ZM155.954 62.584L153.83 59.2705C152.641 59.6104 151.055 60.0635 149.072 60.6299C147.146 61.1963 143.295 62.6689 137.518 65.0479C131.797 67.4268 126.331 70.0039 121.12 72.7793C115.909 75.498 110.132 79.208 103.788 83.9092C97.501 88.5537 92.0635 93.5381 87.4756 98.8623C82.8877 104.13 79.0078 110.502 75.8359 117.979C72.7207 125.455 71.1631 133.243 71.1631 141.343C71.1631 147.743 72.0977 153.436 73.9668 158.42C75.8359 163.404 78.1582 167.397 80.9336 170.399C83.709 173.345 86.9658 175.78 90.7041 177.706C94.499 179.575 98.0674 180.821 101.409 181.444C104.808 182.124 108.234 182.464 111.689 182.464C121.318 182.464 129.871 178.839 137.348 171.589C144.881 164.339 148.647 154.512 148.647 142.107C148.647 117.016 133.156 104.47 102.174 104.47C115.031 87.6475 132.958 73.6855 155.954 62.584ZM161.477 55.2773L167.254 63.9434C144.824 74.7051 127.521 87.1094 115.343 101.156C145.532 103.025 160.627 116.676 160.627 142.107C160.627 155.758 156.152 166.491 147.203 174.308C138.254 182.067 127.464 185.947 114.833 185.947C110.302 185.947 105.969 185.551 101.834 184.758C97.7559 184.021 93.5645 182.634 89.2598 180.595C84.9551 178.556 81.2734 175.95 78.2148 172.778C75.1562 169.606 72.6357 165.33 70.6533 159.949C68.6709 154.512 67.6797 148.31 67.6797 141.343C67.6797 132.903 69.2939 124.804 72.5225 117.044C75.8076 109.228 79.999 102.516 85.0967 96.9082C90.1943 91.3008 95.8584 86.0898 102.089 81.2754C108.376 76.4609 114.635 72.5244 120.865 69.4658C127.152 66.3506 132.845 63.6885 137.942 61.4795C143.097 59.2705 148.902 57.2031 155.359 55.2773H161.477ZM128.427 142.107C128.313 133.271 126.643 126.673 123.414 122.312C120.242 117.95 114.493 115.316 106.167 114.41C101.296 121.264 98.8604 131.346 98.8604 144.656C98.8604 152.812 100.22 159.354 102.938 164.282C105.657 169.21 109.452 172.127 114.323 173.033C118.175 172.24 121.488 169.437 124.264 164.622C127.039 159.808 128.427 152.303 128.427 142.107Z" fill="black"/>
</svg>
