<?xml version="1.0" encoding="UTF-8" standalone="no"?>
<svg
   width="234"
   height="234"
   viewBox="0 0 234 234"
   fill="none"
   version="1.1"
   id="svg1"
   sodipodi:docname="img04.svg"
   inkscape:version="1.3.2 (091e20ef0f, 2023-11-25)"
   xmlns:inkscape="http://www.inkscape.org/namespaces/inkscape"
   xmlns:sodipodi="http://sodipodi.sourceforge.net/DTD/sodipodi-0.dtd"
   xmlns="http://www.w3.org/2000/svg"
   xmlns:svg="http://www.w3.org/2000/svg">
  <defs
     id="defs1" />
  <sodipodi:namedview
     id="namedview1"
     pagecolor="#ffffff"
     bordercolor="#000000"
     borderopacity="0.25"
     inkscape:showpageshadow="2"
     inkscape:pageopacity="0.0"
     inkscape:pagecheckerboard="0"
     inkscape:deskcolor="#d1d1d1"
     inkscape:zoom="3.0334572"
     inkscape:cx="117.02819"
     inkscape:cy="134.5"
     inkscape:window-width="1920"
     inkscape:window-height="1020"
     inkscape:window-x="0"
     inkscape:window-y="0"
     inkscape:window-maximized="1"
     inkscape:current-layer="svg1" />
  <rect
     x="3"
     y="3"
     width="228"
     height="228"
     rx="16"
     fill="#ffffff"
     stroke="#000000"
     stroke-width="6"
     id="rect1" />
  <path
     d="m 85.6064,127.197 34.4946,-43.5 v 43.5 z m 49.1076,-0.17 0.17,-66.3541 C 134.147,59.9932 133.1,59.6533 131.74,59.6533 L 69.4639,137.987 c 0,2.662 0.7363,4.333 2.209,5.013 h 48.0881 v 37.213 h 14.953 V 143 l 22.43,-0.17 2.463,-15.803 z m -68.7335,9.686 63.9755,-80.5431 c 8.496,0 14.075,1.3311 16.737,3.9932 v 63.5509 h 23.11 l -3.314,22.599 -19.796,0.17 v 37.213 H 116.277 V 146.483 H 70.8232 c -3.2285,-1.755 -4.8427,-5.012 -4.8427,-9.77 z m 35.2585,-12.999 h 15.378 v -19.201 z"
     fill="#000000"
     id="path1" />
</svg>
